<?xml version="1.0" encoding="UTF-8" standalone="no"?>
<svg
   xmlns:dc="http://purl.org/dc/elements/1.1/"
   xmlns:cc="http://creativecommons.org/ns#"
   xmlns:rdf="http://www.w3.org/1999/02/22-rdf-syntax-ns#"
   xmlns:svg="http://www.w3.org/2000/svg"
   xmlns="http://www.w3.org/2000/svg"
   xmlns:sodipodi="http://sodipodi.sourceforge.net/DTD/sodipodi-0.dtd"
   xmlns:inkscape="http://www.inkscape.org/namespaces/inkscape"
   viewBox="0 0 64 64"
   width="64"
   height="64"
   id="svg2985"
   version="1.1"
   inkscape:version="0.48.4 r9939"
   sodipodi:docname="icon.svg">
  <metadata
     id="metadata2998">
    <rdf:RDF>
      <cc:Work
         rdf:about="">
        <dc:format>image/svg+xml</dc:format>
        <dc:type
           rdf:resource="http://purl.org/dc/dcmitype/StillImage" />
      </cc:Work>
    </rdf:RDF>
  </metadata>
  <defs
     id="defs2996" />
  <sodipodi:namedview
     pagecolor="#ffffff"
     bordercolor="#666666"
     borderopacity="1"
     objecttolerance="10"
     gridtolerance="10"
     guidetolerance="10"
     inkscape:pageopacity="0"
     inkscape:pageshadow="2"
     inkscape:window-width="1858"
     inkscape:window-height="1177"
     id="namedview2994"
     showgrid="false"
     inkscape:zoom="3.6875"
     inkscape:cx="32"
     inkscape:cy="32"
     inkscape:window-x="54"
     inkscape:window-y="315"
     inkscape:window-maximized="1"
     inkscape:current-layer="svg2985" />
  <g
     id="cell"
     transform="matrix(0.61538462,0,0,0.61538462,32,32)">
    <circle
       cx="0"
       cy="0"
       r="25"
       style="fill:#ee3333;stroke:#990000;stroke-width:2px"
       id="circle2988"
       d="M 25,0 C 25,13.807119 13.807119,25 0,25 -13.807119,25 -25,13.807119 -25,0 c 0,-13.807119 11.192881,-25 25,-25 13.807119,0 25,11.192881 25,25 z"
       sodipodi:cx="0"
       sodipodi:cy="0"
       sodipodi:rx="25"
       sodipodi:ry="25" />
    <text
       y="8"
       style="font-family:Consolas, 'Courier New', Monospace;font-size:28px;font-weight:bold;text-anchor:middle;fill:#ffffff"
       id="text2990">Ag</text>
  </g>
  <g
     id="expand"
     style="fill:#000000"
     transform="scale(2,2)">
    <path
       id="expand-2"
       d="M 26,32 H 6 C 2.686,32 0,29.313 0,26 V 6 C 0,2.686 2.686,0 6,0 h 20 c 3.312,0 6,2.686 6,6 v 20 c 0,3.313 -2.688,6 -6,6 z M 28,6 C 28,4.896 27.106,4 26,4 H 6 C 4.896,4 4,4.896 4,6 v 20 c 0,1.106 0.896,2 2,2 h 20 c 1.106,0 2,-0.894 2,-2 V 6 z m -4,20 h -6 l 8,-8 v 6 c 0,1.106 -0.894,2 -2,2 z M 24,6 c 1.106,0 2,0.896 2,2 v 6 L 18,6 h 6 z M 8,26 C 6.896,26 6,25.106 6,24 v -6 l 8,8 H 8 z M 6,8 C 6,6.896 6.896,6 8,6 h 6 L 6,14 V 8 z"
       inkscape:connector-curvature="0" />
  </g>
</svg>
